<svg width="21" height="21" viewBox="0 0 21 21" fill="none" xmlns="http://www.w3.org/2000/svg">
<path d="M9.78103 15.3163H11.4398V13.6575H9.78103V15.3163ZM10.6104 2.0459C6.03213 2.0459 2.31641 5.76162 2.31641 10.3399C2.31641 14.9182 6.03213 18.634 10.6104 18.634C15.1887 18.634 18.9045 14.9182 18.9045 10.3399C18.9045 5.76162 15.1887 2.0459 10.6104 2.0459ZM10.6104 16.9752C6.95277 16.9752 3.97521 13.9976 3.97521 10.3399C3.97521 6.68226 6.95277 3.7047 10.6104 3.7047C14.2681 3.7047 17.2457 6.68226 17.2457 10.3399C17.2457 13.9976 14.2681 16.9752 10.6104 16.9752ZM10.6104 5.36351C8.77746 5.36351 7.29282 6.84814 7.29282 8.68112H8.95163C8.95163 7.76878 9.69809 7.02232 10.6104 7.02232C11.5228 7.02232 12.2692 7.76878 12.2692 8.68112C12.2692 10.3399 9.78103 10.1326 9.78103 12.8281H11.4398C11.4398 10.962 13.928 10.7546 13.928 8.68112C13.928 6.84814 12.4434 5.36351 10.6104 5.36351Z" fill="#5A5D6C"/>
</svg>
